<mxfile host="app.diagrams.net" modified="2022-06-16T04:27:29.133Z" agent="5.0 (Macintosh; Intel Mac OS X 10_15_7) AppleWebKit/537.36 (KHTML, like Gecko) Chrome/102.0.0.0 Safari/537.36" etag="Abk7x6xcyYpuie6HjTeG" version="19.0.2" type="github">
  <diagram name="Page-1" id="efa7a0a1-bf9b-a30e-e6df-94a7791c09e9">
    <mxGraphModel dx="1426" dy="826" grid="1" gridSize="10" guides="1" tooltips="1" connect="1" arrows="1" fold="1" page="1" pageScale="1" pageWidth="826" pageHeight="1169" background="none" math="0" shadow="0">
      <root>
        <mxCell id="0" />
        <mxCell id="1" parent="0" />
        <mxCell id="fIGNbLslzQy6H-vVIBxo-114" value="&lt;b&gt;USER&lt;/b&gt;" style="shape=umlActor;verticalLabelPosition=bottom;verticalAlign=top;html=1;outlineConnect=0;" vertex="1" parent="1">
          <mxGeometry x="170" y="250" width="110" height="140" as="geometry" />
        </mxCell>
        <mxCell id="fIGNbLslzQy6H-vVIBxo-120" value="" style="edgeStyle=orthogonalEdgeStyle;rounded=0;orthogonalLoop=1;jettySize=auto;html=1;fontSize=20;startArrow=block;startFill=1;targetPerimeterSpacing=6;sourcePerimeterSpacing=6;" edge="1" parent="1">
          <mxGeometry relative="1" as="geometry">
            <mxPoint x="634" y="420" as="sourcePoint" />
            <mxPoint x="555" y="590" as="targetPoint" />
            <Array as="points">
              <mxPoint x="639" y="420" />
              <mxPoint x="639" y="590" />
            </Array>
          </mxGeometry>
        </mxCell>
        <mxCell id="fIGNbLslzQy6H-vVIBxo-115" value="&lt;b&gt;ADMIN&lt;/b&gt;" style="shape=umlActor;verticalLabelPosition=bottom;verticalAlign=top;html=1;outlineConnect=0;gradientColor=none;" vertex="1" parent="1">
          <mxGeometry x="570" y="250" width="110" height="140" as="geometry" />
        </mxCell>
        <mxCell id="fIGNbLslzQy6H-vVIBxo-117" value="&lt;span style=&quot;&quot;&gt;	&lt;/span&gt;&lt;b&gt;&lt;font style=&quot;font-size: 20px;&quot;&gt;Z-PLATFORM&lt;/font&gt;&lt;/b&gt;&lt;br&gt;&lt;div&gt;&lt;i&gt;Company Z provides essential online&amp;nbsp;&lt;/i&gt;&lt;/div&gt;&lt;div&gt;&lt;i&gt;services for tens of thousands of&amp;nbsp;&lt;/i&gt;&lt;i style=&quot;background-color: initial;&quot;&gt;users&amp;nbsp;&lt;/i&gt;&lt;/div&gt;&lt;div&gt;&lt;i style=&quot;background-color: initial;&quot;&gt;through&amp;nbsp;&lt;/i&gt;&lt;i style=&quot;background-color: initial;&quot;&gt;their platform ZPlatform&lt;/i&gt;&lt;span style=&quot;background-color: initial;&quot;&gt;.&lt;/span&gt;&lt;/div&gt;" style="rounded=0;whiteSpace=wrap;html=1;" vertex="1" parent="1">
          <mxGeometry x="310" y="530" width="240" height="120" as="geometry" />
        </mxCell>
        <mxCell id="fIGNbLslzQy6H-vVIBxo-118" value="" style="endArrow=classic;startArrow=classic;html=1;rounded=0;fontSize=20;" edge="1" parent="1">
          <mxGeometry width="50" height="50" relative="1" as="geometry">
            <mxPoint x="310" y="580" as="sourcePoint" />
            <mxPoint x="220" y="420" as="targetPoint" />
            <Array as="points">
              <mxPoint x="220" y="580" />
            </Array>
          </mxGeometry>
        </mxCell>
        <mxCell id="fIGNbLslzQy6H-vVIBxo-128" value="" style="edgeStyle=orthogonalEdgeStyle;rounded=0;orthogonalLoop=1;jettySize=auto;html=1;fontSize=20;startArrow=block;startFill=1;endSize=0;sourcePerimeterSpacing=6;targetPerimeterSpacing=6;" edge="1" parent="1" source="fIGNbLslzQy6H-vVIBxo-121" target="fIGNbLslzQy6H-vVIBxo-114">
          <mxGeometry relative="1" as="geometry" />
        </mxCell>
        <mxCell id="fIGNbLslzQy6H-vVIBxo-129" value="" style="edgeStyle=orthogonalEdgeStyle;rounded=0;orthogonalLoop=1;jettySize=auto;html=1;fontSize=20;startArrow=block;startFill=1;endSize=0;sourcePerimeterSpacing=6;targetPerimeterSpacing=6;" edge="1" parent="1" source="fIGNbLslzQy6H-vVIBxo-124" target="fIGNbLslzQy6H-vVIBxo-115">
          <mxGeometry relative="1" as="geometry" />
        </mxCell>
        <mxCell id="fIGNbLslzQy6H-vVIBxo-133" value="" style="group" vertex="1" connectable="0" parent="1">
          <mxGeometry x="30" y="270" width="56.41" height="110" as="geometry" />
        </mxCell>
        <mxCell id="fIGNbLslzQy6H-vVIBxo-121" value="" style="verticalLabelPosition=bottom;verticalAlign=top;html=1;shadow=0;dashed=0;strokeWidth=3;shape=mxgraph.android.phone2;strokeColor=#c0c0c0;fontSize=20;gradientColor=none;" vertex="1" parent="fIGNbLslzQy6H-vVIBxo-133">
          <mxGeometry width="56.41" height="110" as="geometry" />
        </mxCell>
        <mxCell id="fIGNbLslzQy6H-vVIBxo-131" value="&lt;font style=&quot;font-size: 12px;&quot;&gt;&lt;b&gt;Phone&lt;/b&gt;&lt;/font&gt;" style="text;html=1;align=center;verticalAlign=middle;resizable=0;points=[];autosize=1;strokeColor=none;fillColor=none;fontSize=19;" vertex="1" parent="fIGNbLslzQy6H-vVIBxo-133">
          <mxGeometry x="3.1999999999999993" y="40" width="50" height="30" as="geometry" />
        </mxCell>
        <mxCell id="fIGNbLslzQy6H-vVIBxo-134" value="" style="group" vertex="1" connectable="0" parent="1">
          <mxGeometry x="750" y="260" width="52.049999999999955" height="101.5" as="geometry" />
        </mxCell>
        <mxCell id="fIGNbLslzQy6H-vVIBxo-124" value="" style="verticalLabelPosition=bottom;verticalAlign=top;html=1;shadow=0;dashed=0;strokeWidth=3;shape=mxgraph.android.phone2;strokeColor=#c0c0c0;fontSize=20;gradientColor=none;" vertex="1" parent="fIGNbLslzQy6H-vVIBxo-134">
          <mxGeometry width="52.05" height="101.5" as="geometry" />
        </mxCell>
        <mxCell id="fIGNbLslzQy6H-vVIBxo-132" value="&lt;font style=&quot;font-size: 12px;&quot;&gt;&lt;b&gt;Phone&lt;/b&gt;&lt;/font&gt;" style="text;html=1;align=center;verticalAlign=middle;resizable=0;points=[];autosize=1;strokeColor=none;fillColor=none;fontSize=19;" vertex="1" parent="fIGNbLslzQy6H-vVIBxo-134">
          <mxGeometry x="1.0299999999999727" y="30" width="50" height="30" as="geometry" />
        </mxCell>
        <mxCell id="fIGNbLslzQy6H-vVIBxo-136" value="" style="edgeStyle=orthogonalEdgeStyle;rounded=0;orthogonalLoop=1;jettySize=auto;html=1;fontSize=12;startArrow=block;startFill=1;endSize=0;sourcePerimeterSpacing=6;targetPerimeterSpacing=6;" edge="1" parent="1" source="fIGNbLslzQy6H-vVIBxo-135" target="fIGNbLslzQy6H-vVIBxo-117">
          <mxGeometry relative="1" as="geometry" />
        </mxCell>
        <mxCell id="fIGNbLslzQy6H-vVIBxo-135" value="" style="sketch=0;pointerEvents=1;shadow=0;dashed=0;html=1;strokeColor=none;fillColor=#505050;labelPosition=center;verticalLabelPosition=bottom;verticalAlign=top;outlineConnect=0;align=center;shape=mxgraph.office.devices.laptop;fontSize=12;" vertex="1" parent="1">
          <mxGeometry x="380" y="440" width="109.18" height="64" as="geometry" />
        </mxCell>
      </root>
    </mxGraphModel>
  </diagram>
</mxfile>
